<svg width="303" height="235" viewBox="0 0 303 235" fill="none" xmlns="http://www.w3.org/2000/svg">
<g clip-path="url(#clip0_17_4168)">
<path d="M117.889 45.7902C123.528 51.2659 128.937 56.9706 134.442 62.5609C135.299 63.4385 142.614 53.9752 143.224 53.1548C144.005 52.1054 151.224 43.4625 149.986 42.2032C144.481 36.613 139.071 30.9083 133.433 25.4325C132.518 24.5549 125.28 33.9991 124.652 34.8386C123.89 35.8498 116.651 44.5882 117.889 45.7902Z" fill="url(#paint0_linear_17_4168)"/>
<path d="M153.014 44.9889C158.653 50.4646 164.062 56.1694 169.567 61.7596C170.424 62.6373 177.739 53.1739 178.349 52.3535C179.13 51.3041 186.349 42.6612 185.111 41.402C179.606 35.8117 174.196 30.107 168.558 24.6312C167.643 23.7536 160.405 33.1979 159.777 34.0374C159.015 35.0486 151.776 43.7869 153.014 44.9889Z" fill="url(#paint1_linear_17_4168)"/>
<path d="M134.157 20.4147C139.795 25.8904 145.204 31.5951 150.709 37.1854C151.567 38.063 158.881 28.5997 159.491 27.7793C160.272 26.7299 167.491 18.087 166.253 16.8278C160.748 11.2375 155.338 5.53279 149.7 0.0570268C148.786 -0.820622 141.547 8.62364 140.919 9.46313C140.157 10.4743 132.918 19.2127 134.157 20.4147Z" fill="url(#paint2_linear_17_4168)"/>
<path d="M63.9448 228.227C63.9448 226.491 65.2211 225.365 66.8783 225.365C68.9736 225.365 70.326 226.93 70.326 228.685C70.326 228.685 69.0497 228.857 68.8402 230.192C68.8021 230.459 68.8021 230.669 68.8021 230.879C68.8021 233.379 71.5641 234.428 73.907 234.428C75.6976 234.428 78.8977 233.817 78.8977 231.184C78.8977 225.747 65.2973 224.869 64.5353 217.829C63.9448 212.429 68.4212 210.006 73.6975 210.006C78.0024 210.006 82.0978 212.296 82.0978 216.188C82.0978 217.695 80.993 218.649 79.5453 218.649C77.7167 218.649 76.5166 217.276 76.5166 215.749C76.5166 215.749 77.9643 215.578 77.9643 213.422C77.9643 211.685 76.3071 210.617 73.7928 210.617C71.526 210.617 69.5831 211.533 69.5831 213.86C69.5831 219.737 83.3359 220.214 83.9455 226.605C84.6312 232.005 79.7739 235 74.1928 235C68.9545 235 63.9639 232.444 63.9639 228.208L63.9448 228.227Z" fill="#F0C193"/>
<path d="M95.9458 207.774H102.175V220.233C103.451 218.554 105.832 216.264 108.689 216.264C111.546 216.264 113.584 218.115 113.584 220.061V234.58H107.356V219.927C107.356 217.543 105.775 217.295 104.194 218.668C103.851 218.973 102.651 220.233 102.156 220.958V234.58H95.9268V207.774H95.9458Z" fill="#F0C193"/>
<path d="M125.318 230.86C125.318 226.414 130.08 226.109 136.004 223.247V220.137C136.004 218.115 134.766 217.027 133.185 217.027C131.604 217.027 130.29 217.714 130.29 219.756C130.29 221.797 131.661 222.141 131.661 222.141C131.661 222.961 130.633 224.182 129.28 224.296C127.071 224.506 126.08 222.866 126.08 221.263C126.08 218.63 129.28 216.55 133.242 216.55C135.966 216.55 138.233 217.294 139.89 218.668C141.338 219.87 142.233 221.568 142.233 223.724V230.898C142.233 231.68 142.366 232.367 142.919 232.367C143.223 232.367 143.433 232.157 143.509 230.898L143.852 230.936C143.852 233.187 142.061 235 139.852 235C137.852 235 136.271 233.531 136.061 231.585C135.09 233.226 132.747 235 130.442 235C127.509 235 125.337 233.187 125.337 230.86H125.318ZM136.004 231.165V223.648C133.071 225.384 131.242 226.891 131.242 229.963C131.242 231.299 132.099 232.558 133.28 232.558C134.461 232.558 135.28 232.081 136.004 231.184V231.165Z" fill="#F0C193"/>
<path d="M155.567 216.932H161.795V220.214C163.072 218.535 165.453 216.245 168.31 216.245C171.167 216.245 173.205 218.096 173.205 220.042V234.561H166.977V219.908C166.977 217.523 165.396 217.275 163.815 218.649C163.472 218.954 162.291 220.214 161.776 220.939V234.561H155.548V216.913L155.567 216.932Z" fill="#F0C193"/>
<path d="M184.939 230.86C184.939 226.414 189.701 226.109 195.625 223.247V220.137C195.625 218.115 194.387 217.027 192.806 217.027C191.225 217.027 189.911 217.714 189.911 219.756C189.911 221.797 191.282 222.141 191.282 222.141C191.282 222.961 190.254 224.182 188.901 224.296C186.692 224.506 185.701 222.866 185.701 221.263C185.701 218.63 188.901 216.55 192.863 216.55C195.587 216.55 197.854 217.294 199.511 218.668C200.959 219.87 201.854 221.568 201.854 223.724V230.898C201.854 231.68 201.987 232.367 202.54 232.367C202.845 232.367 203.054 232.157 203.13 230.898L203.473 230.936C203.473 233.187 201.683 235 199.473 235C197.473 235 195.892 233.531 195.682 231.585C194.711 233.226 192.349 235 190.063 235C187.13 235 184.958 233.187 184.958 230.86H184.939ZM195.625 231.165V223.648C192.692 225.384 190.863 226.891 190.863 229.963C190.863 231.299 191.72 232.558 192.901 232.558C194.082 232.558 194.901 232.081 195.625 231.184V231.165Z" fill="#F0C193"/>
<path d="M218.388 234.103C216.902 233.97 215.74 234.37 215.188 234.58V207.774H221.359V217.581C221.988 216.97 223.226 216.589 224.464 216.589C229.112 216.589 232.769 220.443 232.769 225.46C232.769 231.375 228.979 234.981 223.95 234.981C221.302 234.981 221.131 234.37 218.369 234.122L218.388 234.103ZM226.407 225.46C226.407 220.71 225.645 217.199 223.378 217.199C222.693 217.199 221.931 217.638 221.378 218.325V231.89C221.378 233.493 222.236 234.485 223.378 234.485C225.474 234.485 226.407 230.211 226.407 225.441V225.46Z" fill="#F0C193"/>
<path d="M151.91 129.339C141.662 139.222 130.48 147.75 117.547 153.875C100.137 162.117 81.7741 165.227 62.7068 163.872C54.7446 163.3 46.7825 162.003 38.9918 160.247C23.696 156.813 12.7814 147.102 5.52404 133.708C-1.94286 119.971 -1.86666 105.661 6.05739 91.9242C7.79078 88.9288 10.648 86.4676 13.3529 84.1971C15.2386 82.6135 17.6197 82.7662 18.953 84.178C16.953 85.4563 14.591 86.3531 13.1052 88.013C5.08593 96.9993 7.0479 111.481 17.1054 118.025C28.2295 125.275 39.9632 124.34 51.735 119.933C65.164 114.896 76.5168 106.501 87.5266 97.4954C95.8316 90.7032 104.575 84.5024 115.337 82.3083C128.366 79.6372 140.309 81.8885 150.252 91.4282C150.557 91.7144 150.9 91.9624 151.167 92.1914C154.024 89.9972 156.634 87.4978 159.662 85.7616C173.606 77.8055 187.72 78.8167 201.321 86.3531C208.673 90.4361 215.416 95.6256 222.255 100.567C233.131 108.409 244.522 115.258 257.665 118.387C267.875 120.829 277.799 120.009 286.733 113.637C296.714 106.52 297.686 90.7032 288.466 82.5945C287.152 81.4497 285.171 81.049 283.457 80.2859C284.923 78.2825 287.266 78.5687 289.609 79.9615C294.352 82.7662 297.343 87.1353 299.419 92.0769C306.753 109.515 302.791 128.175 289.781 141.931C280.942 151.261 270.256 156.489 257.951 158.912C240.141 162.422 222.312 162.976 204.559 158.626C187.454 154.428 172.234 146.434 158.786 135.082C156.538 133.174 154.253 131.304 151.967 129.396" fill="url(#paint3_linear_17_4168)"/>
</g>
<defs>
<linearGradient id="paint0_linear_17_4168" x1="133.938" y1="25.375" x2="133.938" y2="62.6183" gradientUnits="userSpaceOnUse">
<stop stop-color="#CC986D"/>
<stop offset="1" stop-color="#F0C193"/>
</linearGradient>
<linearGradient id="paint1_linear_17_4168" x1="169.063" y1="24.5737" x2="169.063" y2="61.817" gradientUnits="userSpaceOnUse">
<stop stop-color="#CC986D"/>
<stop offset="1" stop-color="#F0C193"/>
</linearGradient>
<linearGradient id="paint2_linear_17_4168" x1="150.205" y1="-0.000488281" x2="150.205" y2="37.2428" gradientUnits="userSpaceOnUse">
<stop stop-color="#CC986D"/>
<stop offset="1" stop-color="#F0C193"/>
</linearGradient>
<linearGradient id="paint3_linear_17_4168" x1="151.544" y1="78.8501" x2="151.544" y2="164.178" gradientUnits="userSpaceOnUse">
<stop stop-color="#CC986D"/>
<stop offset="1" stop-color="#F0C193"/>
</linearGradient>
<clipPath id="clip0_17_4168">
<rect width="303" height="235" fill="white"/>
</clipPath>
</defs>
</svg>
